<svg width="88" height="88" viewBox="0 0 88 88" fill="none" xmlns="http://www.w3.org/2000/svg">
<path d="M56.5256 22.7636C63.8229 34.5658 82.1739 12.6255 85.9143 2.81416C96.4299 41.8074 63.8229 55.9517 62.6378 59.388C63.8848 71.313 71.4911 79.7191 85.2215 86.2885C68.1799 91.4189 44.2108 85.179 30.7716 65.3505C24.5896 56.2302 5.29409 73.9868 2.36861 85.3178C-3.53992 65.8041 2.7842 55.6441 8.48632 45.5873C15.0863 33.947 26.0605 32.6263 25.2293 25.416C24.0774 15.4248 12.5702 5.21151 2.50714 2.25959C22.6254 -5.70996 47.9532 8.89896 56.5256 22.7634V22.7636ZM52.2243 45.3262C52.2243 38.3236 44.5979 33.9235 38.5295 37.4246C32.4611 40.9258 32.4613 49.7267 38.5295 53.2278C44.5979 56.7292 52.2245 52.3287 52.2245 45.3262H52.2243Z" fill="white"/>
</svg>
